<?xml version="1.0" encoding="utf-8"?>
<svg viewBox="0 0 500 500" xmlns="http://www.w3.org/2000/svg">
  <g transform="matrix(0.06755700707435608, 0, 0, -0.06755700707435608, -12.609212109583797, 515.2907791628058)" fill="#7b6ed6" stroke="none" style="">
    <path d="M6717 7614 c-68 -15 -162 -49 -637 -229 -140 -53 -322 -122 -405 -153 -181 -67 -299 -137 -398 -235 -165 -164 -259 -368 -282 -612 -23 -244 150 -465 390 -495 42 -5 326 -10 632 -10 614 0 588 3 656 -65 65 -65 61 23 64 -1465 2 -745 4 -1368 5 -1383 l3 -28 75 51 c110 76 230 185 365 334 41 45 124 168 172 256 125 226 187 414 218 657 14 113 16 284 13 1463 l-3 1335 -32 90 c-42 123 -89 199 -172 283 -180 181 -425 257 -664 206z m-101 -870 c89 -47 134 -151 108 -253 -52 -199 -322 -222 -416 -35 -30 62 -23 158 18 216 42 62 121 101 195 96 30 -2 73 -13 95 -24z"/>
    <path d="M5430 5225 l0 -215 -2347 -2 c-2206 -3 -2352 -4 -2406 -21 -98 -29 -159 -58 -228 -109 -80 -58 -128 -111 -179 -198 -118 -200 -113 -468 12 -667 94 -149 277 -269 448 -293 54 -7 180 -10 346 -8 l261 3 49 30 c58 36 104 114 104 179 0 56 -42 135 -90 169 -56 40 -115 47 -389 47 l-247 0 -53 33 c-71 42 -101 98 -101 182 0 36 8 76 19 100 23 51 79 101 128 114 24 7 190 11 439 11 l402 0 386 -578 386 -577 0 -76 0 -77 -137 -4 c-151 -4 -191 -17 -244 -75 -56 -60 -54 3 -54 -1458 l0 -1351 25 -48 c15 -28 43 -61 68 -80 l44 -31 517 0 517 0 42 28 c26 17 52 46 69 80 l28 52 2 799 c2 440 4 801 6 802 1 2 47 13 102 24 422 92 770 347 990 725 28 50 57 104 64 121 10 25 24 36 64 52 29 11 174 67 322 125 149 58 346 135 439 171 93 36 175 66 182 66 9 0 13 -54 17 -207 4 -186 7 -218 31 -303 101 -357 347 -622 701 -751 l90 -33 240 -5 240 -6 5 -145 c4 -109 9 -153 22 -175 66 -120 231 -143 328 -46 64 64 70 94 70 369 0 266 -7 306 -68 365 -64 62 -98 67 -472 66 l-325 0 -3 1520 -2 1521 -430 0 -430 0 0 -215z"/>
    <path d="M4892 2591 c-125 -50 -146 -62 -165 -92 -109 -178 -200 -292 -345 -430 -185 -177 -412 -323 -627 -404 l-60 -23 -3 -617 c-1 -408 1 -631 8 -656 14 -51 60 -102 114 -129 43 -20 53 -21 537 -18 l494 3 45 33 c92 66 84 -16 90 946 l5 849 132 66 c73 36 133 69 133 73 0 4 -15 31 -33 60 -66 104 -136 251 -162 341 -9 31 -17 57 -18 56 -1 0 -67 -26 -145 -58z"/>
  </g>
</svg>